<svg xmlns="http://www.w3.org/2000/svg" width="1200" height="630" viewBox="0 0 1200 630">
  <rect width="1200" height="630" fill="#f7f9fc"/>
  <rect x="78" y="78" width="1044" height="474" rx="42" fill="#ffffff" stroke="#e2e8f0" stroke-width="3"/>
  <rect x="130" y="138" width="122" height="122" rx="30" fill="#0f172a"/>
  <g fill="none" stroke="#ffffff" stroke-width="8"><rect x="157" y="165" width="24" height="24" rx="3"/><rect x="201" y="165" width="24" height="24" rx="3"/><rect x="157" y="209" width="24" height="24" rx="3"/></g><rect x="201" y="209" width="24" height="24" rx="3" fill="#60a5fa"/>
  <text x="302" y="190" fill="#0f172a" font-size="70" font-family="Arial,sans-serif" font-weight="800">QR AJN</text>
  <text x="302" y="250" fill="#475569" font-size="34" font-family="Arial,sans-serif">Create QR Codes · Track Real Scans</text>
  <rect x="130" y="330" width="285" height="120" rx="24" fill="#eff6ff" stroke="#bfdbfe"/>
  <rect x="457" y="330" width="285" height="120" rx="24" fill="#ecfdf5" stroke="#a7f3d0"/>
  <rect x="784" y="330" width="286" height="120" rx="24" fill="#f8fafc" stroke="#cbd5e1"/>
  <text x="272" y="385" text-anchor="middle" fill="#1d4ed8" font-size="26" font-family="Arial,sans-serif" font-weight="700">CREATE</text><text x="272" y="420" text-anchor="middle" fill="#64748b" font-size="19" font-family="Arial,sans-serif">Static or trackable</text>
  <text x="600" y="385" text-anchor="middle" fill="#047857" font-size="26" font-family="Arial,sans-serif" font-weight="700">TRACK</text><text x="600" y="420" text-anchor="middle" fill="#64748b" font-size="19" font-family="Arial,sans-serif">Live scan counts</text>
  <text x="927" y="385" text-anchor="middle" fill="#0f172a" font-size="26" font-family="Arial,sans-serif" font-weight="700">MANAGE</text><text x="927" y="420" text-anchor="middle" fill="#64748b" font-size="19" font-family="Arial,sans-serif">Private link, no login</text>
</svg>
